<svg width="40" height="40" viewBox="0 0 40 40" fill="none" xmlns="http://www.w3.org/2000/svg">
<path d="M40 20C40 25.5228 37.7614 30.5228 34.1421 34.1421C30.5228 37.7614 25.5228 40 20 40C14.4772 40 9.47715 37.7614 5.85786 34.1421C2.23858 30.5228 0 25.5228 0 20C0 14.4771 2.23858 9.47712 5.85786 5.85783C9.47715 2.23855 14.4772 -3.05176e-05 20 -3.05176e-05C25.5228 -3.05176e-05 30.5228 2.23855 34.1421 5.85783C37.7614 9.47712 40 14.4771 40 20Z" fill="#4D5AE5"/>
<g clip-path="url(#clip0_696704_507)">
<path d="M27.9845 16.704C27.9471 15.8538 27.8096 15.2693 27.6126 14.7629C27.4095 14.2253 27.0969 13.744 26.6874 13.3439C26.2873 12.9376 25.8028 12.6219 25.2715 12.4219C24.7621 12.2249 24.1807 12.0874 23.3306 12.05C22.4741 12.0093 22.2022 11.9999 20.0299 11.9999C17.8576 11.9999 17.5857 12.0093 16.7324 12.0468C15.8822 12.0843 15.2978 12.2219 14.7914 12.4187C14.2537 12.6219 13.7724 12.9344 13.3723 13.3439C12.966 13.744 12.6504 14.2285 12.4503 14.7598C12.2533 15.2693 12.1159 15.8506 12.0784 16.7008C12.0377 17.5573 12.0283 17.8292 12.0283 20.0015C12.0283 22.1738 12.0377 22.4457 12.0752 23.299C12.1127 24.1491 12.2503 24.7336 12.4472 25.24C12.6504 25.7776 12.966 26.2589 13.3723 26.659C13.7724 27.0654 14.2569 27.3811 14.7883 27.5811C15.2978 27.778 15.879 27.9155 16.7293 27.953C17.5825 27.9906 17.8545 27.9999 20.0268 27.9999C22.1991 27.9999 22.471 27.9906 23.3243 27.953C24.1745 27.9155 24.7589 27.778 25.2653 27.5811C26.3406 27.1653 27.1907 26.3152 27.6064 25.24C27.8032 24.7305 27.9408 24.1491 27.9783 23.299C28.0158 22.4457 28.0252 22.1738 28.0252 20.0015C28.0252 17.8292 28.022 17.5573 27.9845 16.704ZM26.5437 23.2365C26.5093 24.0179 26.378 24.4398 26.2686 24.7211C25.9998 25.4182 25.4466 25.9714 24.7495 26.2402C24.4682 26.3496 24.0432 26.4809 23.2649 26.5152C22.421 26.5528 22.1679 26.5621 20.0331 26.5621C17.8982 26.5621 17.642 26.5528 16.8011 26.5152C16.0197 26.4809 15.5977 26.3496 15.3164 26.2402C14.9696 26.112 14.6538 25.9089 14.3976 25.6432C14.1319 25.3837 13.9287 25.0712 13.8005 24.7243C13.6911 24.443 13.5599 24.0179 13.5256 23.2397C13.488 22.3957 13.4787 22.1425 13.4787 20.0077C13.4787 17.8729 13.488 17.6166 13.5256 16.7759C13.5599 15.9945 13.6911 15.5725 13.8005 15.2912C13.9287 14.9442 14.1319 14.6286 14.4007 14.3722C14.6601 14.1065 14.9726 13.9034 15.3196 13.7753C15.6009 13.6659 16.026 13.5346 16.8043 13.5002C17.6482 13.4627 17.9014 13.4533 20.0361 13.4533C22.1741 13.4533 22.4272 13.4627 23.2681 13.5002C24.0495 13.5346 24.4714 13.6659 24.7527 13.7753C25.0996 13.9034 25.4153 14.1065 25.6716 14.3722C25.9373 14.6316 26.1404 14.9442 26.2686 15.2912C26.378 15.5725 26.5093 15.9975 26.5437 16.7759C26.5812 17.6198 26.5906 17.8729 26.5906 20.0077C26.5906 22.1425 26.5812 22.3926 26.5437 23.2365Z" fill="#F4F4FD"/>
<path d="M20.0301 15.8913C17.761 15.8913 15.9199 17.7322 15.9199 20.0014C15.9199 22.2707 17.761 24.1116 20.0301 24.1116C22.2993 24.1116 24.1403 22.2707 24.1403 20.0014C24.1403 17.7322 22.2993 15.8913 20.0301 15.8913ZM20.0301 22.6676C18.558 22.6676 17.3639 21.4737 17.3639 20.0014C17.3639 18.5292 18.558 17.3353 20.0301 17.3353C21.5023 17.3353 22.6963 18.5292 22.6963 20.0014C22.6963 21.4737 21.5023 22.6676 20.0301 22.6676Z" fill="#F4F4FD"/>
<path d="M25.262 15.7288C25.262 16.2587 24.8323 16.6883 24.3023 16.6883C23.7724 16.6883 23.3428 16.2587 23.3428 15.7288C23.3428 15.1988 23.7724 14.7693 24.3023 14.7693C24.8323 14.7693 25.262 15.1988 25.262 15.7288Z" fill="#F4F4FD"/>
</g>
<defs>
<clipPath id="clip0_696704_507">
<rect width="16" height="16" fill="white" transform="translate(12 11.9999)"/>
</clipPath>
</defs>
</svg>
